<svg viewBox="0 0 5.821 5.821" xmlns="http://www.w3.org/2000/svg"><g fill="#000000"><path d="M3.829 4.85H1.712a.722.722 0 01-.722-.723V2.011a.722.722 0 01.722-.722H2.77v.264H1.712a.458.458 0 00-.458.458v2.116c0 .253.205.458.458.458h2.117a.458.458 0 00.457-.458V3.07h.265v1.058a.722.722 0 01-.722.723z"/><path d="M2.955 3.776l-.187-.186 1.69-1.69-.555-.556-1.691 1.69-.188-.187L3.903.97l.928.929z"/><path d="M1.942 4.043a.133.133 0 01-.13-.156l.175-.971a.133.133 0 01.225-.07l.743.744a.132.132 0 01-.06.223l-.919.227zm.265-.831l-.096.53.492-.123zm1.262-1.628l.186-.187.743.743-.187.187z"/></g></svg>